<mxfile host="app.diagrams.net" modified="2023-11-20T12:41:07.578Z" agent="Mozilla/5.0 (Linux; Android 10; K) AppleWebKit/537.36 (KHTML, like Gecko) Chrome/118.0.0.0 Mobile Safari/537.36 EdgA/118.0.2088.66" version="22.1.3" etag="q6moFavUYF8jWJ71pHtO" type="github">
  <diagram name="第 1 页" id="qARJv5t8qv7T0nK0jZ-0">
    <mxGraphModel>
      <root>
        <mxCell id="0" />
        <mxCell id="1" parent="0" />
      </root>
    </mxGraphModel>
  </diagram>
</mxfile>
